<svg width="390" height="71" viewBox="0 0 390 71" fill="none" xmlns="http://www.w3.org/2000/svg">
<path d="M95.1677 40.7094H90.5068L89.0563 46.0106H85.0053L86.4558 40.7094H83.5882V37.0681H87.4693L88.5829 33.0141H84.7019V29.3727H89.5964L91.0833 24.0716H95.1343L93.6474 29.3727H98.3113L99.7952 24.0716H103.846L102.362 29.3727H105.263V33.0141H101.346L100.232 37.0681H104.147V40.7094H99.2217L97.7682 46.0106H93.7142L95.1677 40.7094ZM91.5263 37.0681H96.1872L97.3009 33.0141H92.6339L91.5263 37.0681Z" fill="#E06A1B"/>
<path d="M123.694 34.0245V34.6678L132.494 44.7604V46.0106H126.122L118.424 36.9073H116.23V46.0106H110.495V24.0655H116.233V32.1675H118.393L125.448 24.0655H131.387V25.3157L123.694 34.0245Z" fill="#E06A1B"/>
<path d="M135.331 29.13H141.003V30.7504C141.665 30.0951 142.45 29.5783 143.314 29.2303C144.178 28.8823 145.103 28.7099 146.034 28.7234C150.388 28.7234 153.562 32.1675 153.562 37.5688C153.562 42.9701 150.397 46.4112 146.043 46.4112C145.114 46.4309 144.191 46.2651 143.327 45.9232C142.463 45.5814 141.676 45.0705 141.012 44.4206V51.242H135.331V29.13ZM140.793 37.5688C140.793 39.7657 142.177 41.0827 144.304 41.0827C146.431 41.0827 147.815 39.7657 147.815 37.5688C147.815 35.3719 146.431 34.0579 144.304 34.0579C142.177 34.0579 140.809 35.3749 140.809 37.5688H140.793Z" fill="#E06A1B"/>
<path d="M161.504 29.13L165.218 38.9556H165.421L168.898 29.13H174.333V30.2103L168.222 46.0774C166.905 49.4881 165.115 51.5697 159.14 51.5697V46.1684C160.423 46.1684 161.3 46.0986 161.871 45.865L155.662 30.2103V29.13H161.504Z" fill="#E06A1B"/>
<path d="M177.268 29.13H190.131V34.3978H182.942V46.0106H177.268V29.13Z" fill="#E06A1B"/>
<path d="M192.528 37.5688C192.528 32.1675 196.472 28.7234 201.846 28.7234C207.22 28.7234 211.165 32.1675 211.165 37.5688C211.165 42.9701 207.214 46.4112 201.846 46.4112C196.479 46.4112 192.528 42.9731 192.528 37.5688ZM198.266 37.5688C198.266 39.7657 199.686 41.0827 201.846 41.0827C204.007 41.0827 205.427 39.7657 205.427 37.5688C205.427 35.3719 204.01 34.058 201.849 34.058C199.689 34.058 198.266 35.3749 198.266 37.5688Z" fill="#E06A1B"/>
<path d="M238.002 37.3685V38.7856C236.721 43.0338 232.094 46.4142 226.186 46.4142C219.206 46.4142 214.066 41.9263 214.066 34.9046C214.066 27.8829 219.197 23.4253 226.186 23.4253C231.79 23.4253 236.485 26.2594 238.002 31.0539V32.4709H232.06C231.22 30.1102 229.096 28.7598 226.186 28.7598C222.405 28.7598 219.907 31.0539 219.907 34.9046C219.907 38.7553 222.405 41.0827 226.186 41.0827C229.09 41.0827 231.25 39.7324 232.094 37.3685H238.002Z" fill="#E06A1B"/>
<path d="M241.95 29.13H249.839C254.767 29.13 258.381 30.887 258.381 33.9851C258.381 35.6389 257.267 36.7161 255.847 37.3959V37.6993C257.234 38.2061 258.578 39.2863 258.578 40.9401C258.578 43.8774 255.407 46.0046 249.97 46.0046H241.95V29.13ZM247.609 33.7545V36.0941H250.583C251.73 36.0941 252.403 35.6207 252.403 34.9471C252.415 34.1945 251.605 33.7879 250.155 33.7545H247.609ZM247.621 39.0557V41.3862H250.222C251.809 41.3862 252.649 40.9795 252.649 40.2027C252.652 39.5291 251.945 39.0557 250.795 39.0557H247.621Z" fill="#E06A1B"/>
<path d="M279.829 39.6626V40.7428C278.782 43.9502 275.237 46.4112 270.646 46.4112C265.278 46.4112 261.328 42.9701 261.328 37.5658C261.328 32.1614 265.272 28.7204 270.646 28.7204C275.441 28.7204 279.085 31.4514 279.829 35.8786V38.3062H267.102C267.372 40.1632 268.722 41.2769 270.646 41.2769C272.03 41.2769 273.247 40.7701 273.887 39.6565L279.829 39.6626ZM267.439 35.3081H273.854C273.28 34.1277 272.233 33.4511 270.646 33.4511C269.15 33.4511 268.012 34.1277 267.439 35.3081Z" fill="#E06A1B"/>
<path d="M292.792 46.0106H287.12V34.3978H281.989V29.13H297.89V34.3978H292.792V46.0106Z" fill="#E06A1B"/>
<path d="M307.882 39.696H306.668V46.0106H300.994V29.13H306.668V35.4447H307.815L312.643 29.13H318.281V29.9069L312.44 37.4019L318.718 45.2338V46.0106H312.776L307.882 39.696Z" fill="#E06A1B"/>
<path d="M338.503 46.0106H332.831V44.4236C332.166 45.0712 331.378 45.5806 330.515 45.9222C329.651 46.2639 328.729 46.4311 327.8 46.4142C323.446 46.4142 320.272 42.9731 320.272 37.5688C320.272 32.1645 323.446 28.7234 327.8 28.7234C328.731 28.713 329.655 28.8867 330.518 29.2346C331.381 29.5824 332.168 30.0976 332.831 30.7504V29.13H338.503V46.0106ZM333.041 37.5688C333.041 35.3749 331.654 34.0579 329.53 34.0579C327.406 34.0579 326.016 35.3749 326.016 37.5688C326.016 39.7627 327.403 41.0827 329.53 41.0827C331.657 41.0827 333.034 39.7657 333.034 37.5688H333.041Z" fill="#E06A1B"/>
<path d="M368.109 28.4199C363.972 33.7119 360.754 39.6613 358.587 46.0197H352.849C355.011 39.9478 358.073 34.235 361.931 29.0723H349.439V24.0655H368.109V28.4199Z" fill="#3780C3"/>
<path d="M389.314 41.1494H386.477V46.0045H380.739V41.1494H368.923V36.8284L381.425 24.0655H386.489V36.4885H390L389.314 41.1494ZM380.739 36.4885V30.9871L374.898 36.4885H380.739Z" fill="#3780C3"/>
<path d="M64.7777 34.9258C62.7338 34.5545 60.6715 34.2931 58.5996 34.1429C53.4435 33.7742 48.2614 34.0885 43.1877 35.0775C45.9187 38.1119 48.1247 40.5395 49.56 42.1629C52.0391 44.9576 58.5207 52.307 60.9088 54.6921C63.0329 56.8162 64.013 57.854 64.4682 58.3335C67.184 61.1282 68.6891 62.6757 69.6419 62.3086C70.5947 61.9414 70.6463 59.614 70.5826 58.1696C70.443 55.126 69.6632 48.2591 64.7777 34.9258Z" fill="url(#paint0_linear_1501_2)"/>
<path d="M35.2951 35.2929C36.7954 32.2262 38.6831 29.3646 40.9118 26.7783C44.9719 22.0779 47.2568 21.7047 47.891 21.6197C49.9241 21.3709 51.6629 22.0961 52.7188 22.6727C54.3999 23.7624 55.9946 24.9798 57.489 26.314C60.3145 28.824 62.7669 31.7249 64.7716 34.9288C54.9112 33.144 44.7573 33.9299 35.289 37.2107L35.2951 35.2929Z" fill="#F18919"/>
<path d="M34.9431 5.80122C34.5095 8.22687 34.2297 10.6775 34.1056 13.1385C33.8657 18.03 34.2316 22.9324 35.195 27.7342C37.4708 25.5089 39.8043 23.2735 42.1954 21.028C46.3991 17.0711 50.5705 13.2933 54.7094 9.69441C56.8336 7.5703 57.8713 6.58714 58.3356 6.13501C61.1303 3.40401 62.6779 1.91107 62.3138 0.958252C61.9496 0.00543743 59.6161 -0.0431136 58.1748 0.0175753C55.1434 0.135918 48.2764 0.91577 34.9431 5.80122Z" fill="url(#paint1_linear_1501_2)"/>
<path d="M35.3284 35.2717C32.2617 33.7714 29.4001 31.8837 26.8138 29.655C22.1135 25.5949 21.7402 23.3099 21.6553 22.6757C21.4937 20.996 21.8619 19.3079 22.7082 17.8479C23.7969 16.1662 25.0143 14.5714 26.3495 13.0778C28.8595 10.2522 31.7604 7.79989 34.9643 5.79515C33.1754 15.6553 33.9614 25.8103 37.2462 35.2778L35.3284 35.2717Z" fill="#5EC0C6"/>
<path d="M35.6835 64.7665C36.1353 62.2541 36.4232 59.715 36.5452 57.1652C36.7653 52.4783 36.423 47.7819 35.5257 43.1764C32.4912 45.9074 30.0637 48.1134 28.4433 49.5487C25.6334 52.04 18.2992 58.5094 15.9141 60.8945C13.79 63.0186 12.7522 64.0018 12.2728 64.4539C9.47804 67.1697 7.93047 68.6779 8.2946 69.6125C8.67694 70.6078 10.9922 70.6169 12.4366 70.5562C15.4711 70.4318 22.3471 69.6489 35.6835 64.7665Z" fill="url(#paint2_linear_1501_2)"/>
<path d="M5.81245 35.654C8.03224 36.0559 10.2734 36.3294 12.5246 36.4733C17.502 36.7828 22.4985 36.4565 27.3934 35.5023C25.2794 33.1456 23.1553 30.7838 21.0211 28.4169C17.2462 24.2132 13.4744 20.0368 9.70564 15.8877C7.58153 13.7636 6.59837 12.7258 6.14624 12.2615C3.41524 9.46681 1.92229 7.91925 0.96948 8.28338C0.0166655 8.64751 -0.0440233 10.981 0.0166655 12.4254C0.147146 15.4598 0.926998 22.3207 5.81245 35.654Z" fill="url(#paint3_linear_1501_2)"/>
<path d="M35.2951 35.2869C33.7947 38.3537 31.9071 41.2153 29.6783 43.8016C25.6182 48.5019 23.3333 48.8751 22.6991 48.9601C20.666 49.2089 18.9273 48.4837 17.8713 47.9072C16.191 46.8164 14.5963 45.5991 13.1012 44.2658C10.2748 41.7555 7.82232 38.8535 5.81852 35.648C11.1383 36.6118 16.5663 36.8314 21.9466 36.3004C26.4967 35.8506 30.978 34.8668 35.2981 33.3691L35.2951 35.2869Z" fill="#FCE155"/>
<path d="M35.3102 35.2838C38.377 36.7842 41.2386 38.6718 43.8249 40.9006C48.5252 44.9607 48.8985 47.2456 48.9834 47.8798C49.2323 49.9129 48.507 51.6516 47.9305 52.7076C46.8398 54.3879 45.6225 55.9826 44.2892 57.4777C41.7789 60.3041 38.8768 62.7566 35.6713 64.7604C36.6352 59.4406 36.8548 54.0126 36.3238 48.6323C35.874 44.0822 34.8901 39.6009 33.3925 35.2808L35.3102 35.2838Z" fill="#3780C3"/>
<path d="M35.2951 43.1825C39.6557 43.1825 43.1907 39.6475 43.1907 35.2869C43.1907 30.9262 39.6557 27.3912 35.2951 27.3912C30.9345 27.3912 27.3995 30.9262 27.3995 35.2869C27.3995 39.6475 30.9345 43.1825 35.2951 43.1825Z" fill="#4364AD"/>
<defs>
<linearGradient id="paint0_linear_1501_2" x1="194.954" y1="4.45594" x2="194.954" y2="75.0038" gradientUnits="userSpaceOnUse">
<stop stop-color="#E7651C"/>
<stop offset="0.21" stop-color="#E96C1B"/>
<stop offset="0.51" stop-color="#EF811A"/>
<stop offset="0.6" stop-color="#F18919"/>
<stop offset="1" stop-color="#F18919"/>
</linearGradient>
<linearGradient id="paint1_linear_1501_2" x1="26.0851" y1="35.2645" x2="416.134" y2="35.2645" gradientUnits="userSpaceOnUse">
<stop stop-color="#00959B"/>
<stop offset="0.14" stop-color="#169FA5"/>
<stop offset="0.42" stop-color="#4DB8BE"/>
<stop offset="0.5" stop-color="#5EC0C6"/>
<stop offset="1" stop-color="#5EC0C6"/>
</linearGradient>
<linearGradient id="paint2_linear_1501_2" x1="331.416" y1="35.2969" x2="-58.3902" y2="35.2969" gradientUnits="userSpaceOnUse">
<stop stop-color="#2E64A2"/>
<stop offset="0.46" stop-color="#3780C3"/>
<stop offset="1" stop-color="#3780C3"/>
</linearGradient>
<linearGradient id="paint3_linear_1501_2" x1="195.032" y1="62.0781" x2="195.032" y2="-8.50178" gradientUnits="userSpaceOnUse">
<stop offset="0.08" stop-color="#FDC300"/>
<stop offset="0.5" stop-color="#FCD73A"/>
<stop offset="0.68" stop-color="#FCE155"/>
<stop offset="1" stop-color="#FCE155"/>
</linearGradient>
</defs>
</svg>
