<svg width="50" height="50" viewBox="0 0 50 50" fill="none" xmlns="http://www.w3.org/2000/svg">
<path d="M50 43.0556C50 46.9444 46.9444 50 43.0556 50H6.94444C3.05556 50 0 46.9444 0 43.0556V6.94444C0 3.05556 3.05556 0 6.94444 0H43.0556C46.9444 0 50 3.05556 50 6.94444V43.0556Z" fill="#FF9800"/>
<path d="M29.0278 33.8888C31.1111 33.4721 33.0556 32.6388 34.7222 31.5277C36.1111 30.6944 36.5278 28.8888 35.6945 27.4999C34.8611 26.111 33.0556 25.6944 31.6667 26.5277C27.6389 29.0277 22.3611 29.0277 18.3333 26.5277C16.9445 25.6944 15.1389 26.111 14.3056 27.4999C13.4722 28.8888 13.8889 30.6944 15.2778 31.5277C17.0833 32.6388 19.0278 33.4721 20.9722 33.8888L15.4167 39.4444C14.3056 40.5555 14.3056 42.361 15.4167 43.611C15.9722 44.1666 16.6667 44.4444 17.5 44.4444C18.1945 44.4444 19.0278 44.1666 19.5833 43.611L25 38.1944L30.4167 43.611C31.5278 44.7221 33.3333 44.7221 34.5833 43.611C35.6945 42.4999 35.6945 40.6944 34.5833 39.4444L29.0278 33.8888ZM25 5.55547C19.5833 5.55547 15.2778 9.86102 15.2778 15.2777C15.2778 20.6944 19.5833 24.9999 25 24.9999C30.4167 24.9999 34.7222 20.6944 34.7222 15.2777C34.7222 9.86102 30.4167 5.55547 25 5.55547ZM25 19.4444C22.6389 19.4444 20.8333 17.6388 20.8333 15.2777C20.8333 12.9166 22.6389 11.111 25 11.111C27.3611 11.111 29.1667 12.9166 29.1667 15.2777C29.1667 17.6388 27.3611 19.4444 25 19.4444Z" fill="white"/>
</svg>
