<svg width="63" height="63" viewBox="0 0 63 63" fill="none" xmlns="http://www.w3.org/2000/svg">
<g filter="url(#filter0_d_1501_3)">
<path d="M31.5 0C16.375 0 4 12.375 4 27.5C4 42.625 16.375 55 31.5 55C46.625 55 59 42.625 59 27.5C59 12.375 46.625 0 31.5 0Z" fill="#1976D2"/>
<path d="M33.15 40.1503C20.775 40.1503 13.7625 31.7628 13.4875 17.6003H19.675C19.8125 27.9128 24.4875 32.3128 28.0625 33.1378V17.6003H33.8375V26.5378C37.4125 26.1253 41.125 22.1378 42.3625 17.6003H48.1375C47.175 23.1003 43.05 27.2253 40.1625 28.8753C43.05 30.2503 47.725 33.8253 49.375 40.1503H42.9125C41.5375 35.8878 38.1 32.5878 33.5625 32.0378V40.1503H33.15Z" fill="white"/>
</g>
<defs>
<filter id="filter0_d_1501_3" x="0" y="0" width="63" height="63" filterUnits="userSpaceOnUse" color-interpolation-filters="sRGB">
<feFlood flood-opacity="0" result="BackgroundImageFix"/>
<feColorMatrix in="SourceAlpha" type="matrix" values="0 0 0 0 0 0 0 0 0 0 0 0 0 0 0 0 0 0 127 0" result="hardAlpha"/>
<feOffset dy="4"/>
<feGaussianBlur stdDeviation="2"/>
<feComposite in2="hardAlpha" operator="out"/>
<feColorMatrix type="matrix" values="0 0 0 0 0 0 0 0 0 0 0 0 0 0 0 0 0 0 0.25 0"/>
<feBlend mode="normal" in2="BackgroundImageFix" result="effect1_dropShadow_1501_3"/>
<feBlend mode="normal" in="SourceGraphic" in2="effect1_dropShadow_1501_3" result="shape"/>
</filter>
</defs>
</svg>
